# xmcd
#
# Track frame offsets:
#	150
#	13445
#	27622
#	40500
#	55095
#	69067
#	84615
#	99105
#	112340
#	126157
#	140012
#	155535
#	169627
#	185060
#	200442
#	214587
#	226985
#	241402
#	254005
#	266560
#	280495
#	294180
#	307757
#
# Disc length: 4276 seconds
#
# Revision: 0
# Processed by: cddbd v1.5.1PL2 Copyright (c) Steve Scherf et al.
# Submitted via: EasyCDDAExtractor 4.5.0.2
#
DISCID=4d10b217
DTITLE=Charlie and Joe McCoy - Volume 1 1934-36
DYEAR=1900
DGENRE=Blues
TTITLE0=Candy man blues
TTITLE1=Charity blues
TTITLE2=Baltimore blues
TTITLE3=Motherless and fatherless blues
TTITLE4=Please baby
TTITLE5=One in a hundred
TTITLE6=One more greasing
TTITLE7=The prodigal`s return
TTITLE8=If I be lifted up
TTITLE9=Don`t need no doctor when I come to die
TTITLE10=That great love
TTITLE11=Main key to heaven
TTITLE12=Twenty minutes to hell (take b)
TTITLE13=Dry bones in the valley
TTITLE14=Highway 61
TTITLE15=My babe my babe
TTITLE16=Greyhound blues
TTITLE17=Look who`s coming down the road
TTITLE18=The world is a hard place to live in
TTITLE19=Something gonna happen to you
TTITLE20=Well, well
TTITLE21=Too long
TTITLE22=Let my peaches be
EXTD=
EXTT0=
EXTT1=
EXTT2=
EXTT3=
EXTT4=
EXTT5=
EXTT6=
EXTT7=
EXTT8=
EXTT9=
EXTT10=
EXTT11=
EXTT12=
EXTT13=
EXTT14=
EXTT15=
EXTT16=
EXTT17=
EXTT18=
EXTT19=
EXTT20=
EXTT21=
EXTT22=
PLAYORDER=
